<?xml version="1.0" standalone="no"?>
<!DOCTYPE svg PUBLIC "-//W3C//DTD SVG 20010904//EN"
 "http://www.w3.org/TR/2001/REC-SVG-20010904/DTD/svg10.dtd">
<svg version="1.0" xmlns="http://www.w3.org/2000/svg"
 width="1325.000000pt" height="974.000000pt" viewBox="0 0 1325.000000 974.000000"
 preserveAspectRatio="xMidYMid meet">

<g transform="translate(0.000000,974.000000) scale(0.100000,-0.100000)"
fill="#000000" stroke="none">
<path d="M322 9698 l-2 -48 -162 -3 -163 -3 163 -2 162 -2 0 -300 0 -300 -162
-3 -163 -3 163 -2 162 -2 0 -295 0 -295 -162 -3 -163 -3 163 -2 162 -2 0 -295
0 -295 -162 -3 -163 -3 163 -2 162 -2 0 -295 0 -295 -162 -3 -163 -3 163 -2
162 -2 0 -290 0 -290 -162 -3 -163 -3 163 -2 162 -2 0 -300 0 -300 -162 -3
-163 -3 163 -2 162 -2 0 -295 0 -295 -162 -3 -163 -3 163 -2 162 -2 0 -295 0
-295 -162 -3 -163 -3 163 -2 162 -2 0 -295 0 -295 -162 -3 -163 -3 163 -2 162
-2 0 -290 0 -290 -162 -3 -163 -3 163 -2 162 -2 0 -300 0 -300 -162 -3 -163
-3 163 -2 162 -2 0 -295 0 -295 -162 -3 -163 -3 163 -2 162 -2 0 -295 0 -295
-162 -3 -163 -3 163 -2 162 -2 0 -295 0 -295 -162 -3 -163 -3 163 -2 162 -2 0
-290 0 -290 -162 -3 -163 -3 163 -2 162 -2 0 -300 0 -300 -162 -3 -163 -3 162
-2 c144 -2 162 -4 166 -19 4 -17 5 -17 6 0 1 16 22 17 295 17 272 0 295 -1
299 -17 4 -17 5 -17 6 0 1 16 22 17 295 17 272 0 295 -1 299 -17 4 -17 5 -17
6 0 1 16 22 17 290 17 267 0 290 -1 294 -17 4 -17 5 -17 6 0 1 16 22 17 300
17 277 0 300 -1 304 -17 4 -17 5 -17 6 0 1 16 22 17 295 17 272 0 295 -1 299
-17 4 -17 5 -17 6 0 1 16 22 17 295 17 272 0 295 -1 299 -17 4 -17 5 -17 6 0
1 16 22 17 295 17 272 0 295 -1 299 -17 4 -17 5 -17 6 0 1 16 22 17 290 17
267 0 290 -1 294 -17 4 -17 5 -17 6 0 1 16 22 17 300 17 277 0 300 -1 304 -17
4 -17 5 -17 6 0 1 16 22 17 295 17 272 0 295 -1 299 -17 4 -17 5 -17 6 0 1 16
22 17 295 17 272 0 295 -1 299 -17 4 -17 5 -17 6 0 1 16 22 17 295 17 272 0
295 -1 299 -17 4 -17 5 -17 6 0 1 16 22 17 290 17 267 0 290 -1 294 -17 4 -17
5 -17 6 0 1 16 22 17 300 17 277 0 300 -1 304 -17 4 -17 5 -17 6 0 1 16 22 17
295 17 272 0 295 -1 299 -17 4 -17 5 -17 6 0 1 16 22 17 295 17 272 0 295 -1
299 -17 4 -17 5 -17 6 0 1 16 22 17 295 17 272 0 295 -1 299 -17 4 -17 5 -17
6 0 1 16 22 17 290 17 267 0 290 -1 294 -17 4 -17 5 -17 6 0 1 16 22 17 300
17 277 0 300 -1 304 -17 4 -17 5 -17 6 0 1 16 22 17 295 17 272 0 295 -1 299
-17 4 -17 5 -17 6 0 1 16 22 17 295 17 272 0 295 -1 299 -17 4 -17 5 -17 6 -1
1 16 18 18 164 21 l162 3 -162 2 -163 2 0 300 0 300 163 3 162 3 -162 2 -163
2 0 290 0 290 163 3 162 3 -162 2 -163 2 0 295 0 295 163 3 162 3 -162 2 -163
2 0 295 0 295 163 3 162 3 -162 2 -163 2 0 295 0 295 163 3 162 3 -162 2 -163
2 0 300 0 300 163 3 162 3 -162 2 -163 2 0 290 0 290 163 3 162 3 -162 2 -163
2 0 295 0 295 163 3 162 3 -162 2 -163 2 0 295 0 295 163 3 162 3 -162 2 -163
2 0 295 0 295 163 3 162 3 -162 2 -163 2 0 300 0 300 163 3 162 3 -162 2 -163
2 0 290 0 290 163 3 162 3 -162 2 -163 2 0 295 0 295 163 3 162 3 -162 2 -163
2 0 295 0 295 163 3 162 3 -162 2 -163 2 0 295 0 295 163 3 162 3 -162 2 -163
2 0 300 0 300 163 3 162 3 -162 2 -162 2 -4 48 -3 47 -2 -47 -2 -48 -294 0
-295 0 -4 48 -3 47 -2 -47 -2 -48 -294 0 -295 0 -4 48 -3 47 -2 -47 -2 -48
-299 0 -300 0 -4 48 -3 47 -2 -47 -2 -48 -289 0 -290 0 -4 48 -3 47 -2 -47 -2
-48 -294 0 -295 0 -4 48 -3 47 -2 -47 -2 -48 -294 0 -295 0 -4 48 -3 47 -2
-47 -2 -48 -294 0 -295 0 -4 48 -3 47 -2 -47 -2 -48 -299 0 -300 0 -4 48 -3
47 -2 -47 -2 -48 -289 0 -290 0 -4 48 -3 47 -2 -47 -2 -48 -294 0 -295 0 -4
48 -3 47 -2 -47 -2 -48 -294 0 -295 0 -4 48 -3 47 -2 -47 -2 -48 -294 0 -295
0 -4 48 -3 47 -2 -47 -2 -48 -299 0 -300 0 -4 48 -3 47 -2 -47 -2 -48 -289 0
-290 0 -4 48 -3 47 -2 -47 -2 -48 -294 0 -295 0 -4 48 -3 47 -2 -47 -2 -48
-294 0 -295 0 -4 48 -3 47 -2 -47 -2 -48 -294 0 -295 0 -4 48 -3 47 -2 -47 -2
-48 -299 0 -300 0 -4 48 -3 47 -2 -47 -2 -48 -289 0 -290 0 -4 48 -3 47 -2
-47 -2 -48 -294 0 -295 0 -4 48 -3 47 -2 -47 -2 -48 -294 0 -295 0 -4 48 -3
47 -2 -47z m598 -358 l0 -300 -295 0 -295 0 0 300 0 300 295 0 295 0 0 -300z
m600 0 l0 -300 -295 0 -295 0 0 300 0 300 295 0 295 0 0 -300z m590 0 l0 -300
-290 0 -290 0 0 300 0 300 290 0 290 0 0 -300z m610 0 l0 -300 -300 0 -300 0
0 300 0 300 300 0 300 0 0 -300z m600 0 l0 -300 -295 0 -295 0 0 300 0 300
295 0 295 0 0 -300z m600 0 l0 -300 -295 0 -295 0 0 300 0 300 295 0 295 0 0
-300z m600 0 l0 -300 -295 0 -295 0 0 300 0 300 295 0 295 0 0 -300z m590 0
l0 -300 -290 0 -290 0 0 300 0 300 290 0 290 0 0 -300z m610 0 l0 -300 -300 0
-300 0 0 300 0 300 300 0 300 0 0 -300z m600 0 l0 -300 -295 0 -295 0 0 300 0
300 295 0 295 0 0 -300z m600 0 l0 -300 -295 0 -295 0 0 300 0 300 295 0 295
0 0 -300z m600 0 l0 -300 -295 0 -295 0 0 300 0 300 295 0 295 0 0 -300z m590
0 l0 -300 -290 0 -290 0 0 300 0 300 290 0 290 0 0 -300z m610 0 l0 -300 -300
0 -300 0 0 300 0 300 300 0 300 0 0 -300z m600 0 l0 -300 -295 0 -295 0 0 300
0 300 295 0 295 0 0 -300z m600 0 l0 -300 -295 0 -295 0 0 300 0 300 295 0
295 0 0 -300z m600 0 l0 -300 -295 0 -295 0 0 300 0 300 295 0 295 0 0 -300z
m590 0 l0 -300 -290 0 -290 0 0 300 0 300 290 0 290 0 0 -300z m610 0 l0 -300
-300 0 -300 0 0 300 0 300 300 0 300 0 0 -300z m600 0 l0 -300 -295 0 -295 0
0 300 0 300 295 0 295 0 0 -300z m600 0 l0 -300 -295 0 -295 0 0 300 0 300
295 0 295 0 0 -300z m-12000 -605 l0 -295 -295 0 -295 0 0 295 0 295 295 0
295 0 0 -295z m600 0 l0 -295 -295 0 -295 0 0 295 0 295 295 0 295 0 0 -295z
m590 0 l0 -295 -290 0 -290 0 0 295 0 295 290 0 290 0 0 -295z m610 0 l0 -295
-300 0 -300 0 0 295 0 295 300 0 300 0 0 -295z m600 0 l0 -295 -295 0 -295 0
0 295 0 295 295 0 295 0 0 -295z m600 0 l0 -295 -295 0 -295 0 0 295 0 295
295 0 295 0 0 -295z m600 0 l0 -295 -295 0 -295 0 0 295 0 295 295 0 295 0 0
-295z m590 0 l0 -295 -290 0 -290 0 0 295 0 295 290 0 290 0 0 -295z m610 0
l0 -295 -300 0 -300 0 0 295 0 295 300 0 300 0 0 -295z m600 0 l0 -295 -295 0
-295 0 0 295 0 295 295 0 295 0 0 -295z m600 0 l0 -295 -295 0 -295 0 0 295 0
295 295 0 295 0 0 -295z m600 0 l0 -295 -295 0 -295 0 0 295 0 295 295 0 295
0 0 -295z m590 0 l0 -295 -290 0 -290 0 0 295 0 295 290 0 290 0 0 -295z m610
0 l0 -295 -300 0 -300 0 0 295 0 295 300 0 300 0 0 -295z m600 0 l0 -295 -295
0 -295 0 0 295 0 295 295 0 295 0 0 -295z m600 0 l0 -295 -295 0 -295 0 0 295
0 295 295 0 295 0 0 -295z m600 0 l0 -295 -295 0 -295 0 0 295 0 295 295 0
295 0 0 -295z m590 0 l0 -295 -290 0 -290 0 0 295 0 295 290 0 290 0 0 -295z
m610 0 l0 -295 -300 0 -300 0 0 295 0 295 300 0 300 0 0 -295z m600 0 l0 -295
-295 0 -295 0 0 295 0 295 295 0 295 0 0 -295z m600 0 l0 -295 -295 0 -295 0
0 295 0 295 295 0 295 0 0 -295z m-12000 -600 l0 -295 -295 0 -295 0 0 295 0
295 295 0 295 0 0 -295z m600 0 l0 -295 -295 0 -295 0 0 295 0 295 295 0 295
0 0 -295z m590 0 l0 -295 -290 0 -290 0 0 295 0 295 290 0 290 0 0 -295z m610
0 l0 -295 -300 0 -300 0 0 295 0 295 300 0 300 0 0 -295z m600 0 l0 -295 -295
0 -295 0 0 295 0 295 295 0 295 0 0 -295z m600 0 l0 -295 -295 0 -295 0 0 295
0 295 295 0 295 0 0 -295z m600 0 l0 -295 -295 0 -295 0 0 295 0 295 295 0
295 0 0 -295z m590 0 l0 -295 -290 0 -290 0 0 295 0 295 290 0 290 0 0 -295z
m610 0 l0 -295 -300 0 -300 0 0 295 0 295 300 0 300 0 0 -295z m600 0 l0 -295
-295 0 -295 0 0 295 0 295 295 0 295 0 0 -295z m600 0 l0 -295 -295 0 -295 0
0 295 0 295 295 0 295 0 0 -295z m600 0 l0 -295 -295 0 -295 0 0 295 0 295
295 0 295 0 0 -295z m590 0 l0 -295 -290 0 -290 0 0 295 0 295 290 0 290 0 0
-295z m610 0 l0 -295 -300 0 -300 0 0 295 0 295 300 0 300 0 0 -295z m600 0
l0 -295 -295 0 -295 0 0 295 0 295 295 0 295 0 0 -295z m600 0 l0 -295 -295 0
-295 0 0 295 0 295 295 0 295 0 0 -295z m600 0 l0 -295 -295 0 -295 0 0 295 0
295 295 0 295 0 0 -295z m590 0 l0 -295 -290 0 -290 0 0 295 0 295 290 0 290
0 0 -295z m610 0 l0 -295 -300 0 -300 0 0 295 0 295 300 0 300 0 0 -295z m600
0 l0 -295 -295 0 -295 0 0 295 0 295 295 0 295 0 0 -295z m600 0 l0 -295 -295
0 -295 0 0 295 0 295 295 0 295 0 0 -295z m-12000 -600 l0 -295 -295 0 -295 0
0 295 0 295 295 0 295 0 0 -295z m600 0 l0 -295 -295 0 -295 0 0 295 0 295
295 0 295 0 0 -295z m590 0 l0 -295 -290 0 -290 0 0 295 0 295 290 0 290 0 0
-295z m610 0 l0 -295 -300 0 -300 0 0 295 0 295 300 0 300 0 0 -295z m600 0
l0 -295 -295 0 -295 0 0 295 0 295 295 0 295 0 0 -295z m600 0 l0 -295 -295 0
-295 0 0 295 0 295 295 0 295 0 0 -295z m600 0 l0 -295 -295 0 -295 0 0 295 0
295 295 0 295 0 0 -295z m590 0 l0 -295 -290 0 -290 0 0 295 0 295 290 0 290
0 0 -295z m610 0 l0 -295 -300 0 -300 0 0 295 0 295 300 0 300 0 0 -295z m600
0 l0 -295 -295 0 -295 0 0 295 0 295 295 0 295 0 0 -295z m600 0 l0 -295 -295
0 -295 0 0 295 0 295 295 0 295 0 0 -295z m600 0 l0 -295 -295 0 -295 0 0 295
0 295 295 0 295 0 0 -295z m590 0 l0 -295 -290 0 -290 0 0 295 0 295 290 0
290 0 0 -295z m610 0 l0 -295 -300 0 -300 0 0 295 0 295 300 0 300 0 0 -295z
m600 0 l0 -295 -295 0 -295 0 0 295 0 295 295 0 295 0 0 -295z m600 0 l0 -295
-295 0 -295 0 0 295 0 295 295 0 295 0 0 -295z m600 0 l0 -295 -295 0 -295 0
0 295 0 295 295 0 295 0 0 -295z m590 0 l0 -295 -290 0 -290 0 0 295 0 295
290 0 290 0 0 -295z m610 0 l0 -295 -300 0 -300 0 0 295 0 295 300 0 300 0 0
-295z m600 0 l0 -295 -295 0 -295 0 0 295 0 295 295 0 295 0 0 -295z m600 0
l0 -295 -295 0 -295 0 0 295 0 295 295 0 295 0 0 -295z m-12000 -595 l0 -290
-295 0 -295 0 0 290 0 290 295 0 295 0 0 -290z m600 0 l0 -290 -295 0 -295 0
0 290 0 290 295 0 295 0 0 -290z m590 0 l0 -290 -290 0 -290 0 0 290 0 290
290 0 290 0 0 -290z m610 0 l0 -290 -300 0 -300 0 0 290 0 290 300 0 300 0 0
-290z m600 0 l0 -290 -295 0 -295 0 0 290 0 290 295 0 295 0 0 -290z m600 0
l0 -290 -295 0 -295 0 0 290 0 290 295 0 295 0 0 -290z m600 0 l0 -290 -295 0
-295 0 0 290 0 290 295 0 295 0 0 -290z m590 0 l0 -290 -290 0 -290 0 0 290 0
290 290 0 290 0 0 -290z m610 0 l0 -290 -300 0 -300 0 0 290 0 290 300 0 300
0 0 -290z m600 0 l0 -290 -295 0 -295 0 0 290 0 290 295 0 295 0 0 -290z m600
0 l0 -290 -295 0 -295 0 0 290 0 290 295 0 295 0 0 -290z m600 0 l0 -290 -295
0 -295 0 0 290 0 290 295 0 295 0 0 -290z m590 0 l0 -290 -290 0 -290 0 0 290
0 290 290 0 290 0 0 -290z m610 0 l0 -290 -300 0 -300 0 0 290 0 290 300 0
300 0 0 -290z m600 0 l0 -290 -295 0 -295 0 0 290 0 290 295 0 295 0 0 -290z
m600 0 l0 -290 -295 0 -295 0 0 290 0 290 295 0 295 0 0 -290z m600 0 l0 -290
-295 0 -295 0 0 290 0 290 295 0 295 0 0 -290z m590 0 l0 -290 -290 0 -290 0
0 290 0 290 290 0 290 0 0 -290z m610 0 l0 -290 -300 0 -300 0 0 290 0 290
300 0 300 0 0 -290z m600 0 l0 -290 -295 0 -295 0 0 290 0 290 295 0 295 0 0
-290z m600 0 l0 -290 -295 0 -295 0 0 290 0 290 295 0 295 0 0 -290z m-12000
-600 l0 -300 -295 0 -295 0 0 300 0 300 295 0 295 0 0 -300z m600 0 l0 -300
-295 0 -295 0 0 300 0 300 295 0 295 0 0 -300z m590 0 l0 -300 -290 0 -290 0
0 300 0 300 290 0 290 0 0 -300z m610 0 l0 -300 -300 0 -300 0 0 300 0 300
300 0 300 0 0 -300z m600 0 l0 -300 -295 0 -295 0 0 300 0 300 295 0 295 0 0
-300z m600 0 l0 -300 -295 0 -295 0 0 300 0 300 295 0 295 0 0 -300z m600 0
l0 -300 -295 0 -295 0 0 300 0 300 295 0 295 0 0 -300z m590 0 l0 -300 -290 0
-290 0 0 300 0 300 290 0 290 0 0 -300z m610 0 l0 -300 -300 0 -300 0 0 300 0
300 300 0 300 0 0 -300z m600 0 l0 -300 -295 0 -295 0 0 300 0 300 295 0 295
0 0 -300z m600 0 l0 -300 -295 0 -295 0 0 300 0 300 295 0 295 0 0 -300z m600
0 l0 -300 -295 0 -295 0 0 300 0 300 295 0 295 0 0 -300z m590 0 l0 -300 -290
0 -290 0 0 300 0 300 290 0 290 0 0 -300z m610 0 l0 -300 -300 0 -300 0 0 300
0 300 300 0 300 0 0 -300z m600 0 l0 -300 -295 0 -295 0 0 300 0 300 295 0
295 0 0 -300z m600 0 l0 -300 -295 0 -295 0 0 300 0 300 295 0 295 0 0 -300z
m600 0 l0 -300 -295 0 -295 0 0 300 0 300 295 0 295 0 0 -300z m590 0 l0 -300
-290 0 -290 0 0 300 0 300 290 0 290 0 0 -300z m610 0 l0 -300 -300 0 -300 0
0 300 0 300 300 0 300 0 0 -300z m600 0 l0 -300 -295 0 -295 0 0 300 0 300
295 0 295 0 0 -300z m600 0 l0 -300 -295 0 -295 0 0 300 0 300 295 0 295 0 0
-300z m-12000 -605 l0 -295 -295 0 -295 0 0 295 0 295 295 0 295 0 0 -295z
m600 0 l0 -295 -295 0 -295 0 0 295 0 295 295 0 295 0 0 -295z m590 0 l0 -295
-290 0 -290 0 0 295 0 295 290 0 290 0 0 -295z m610 0 l0 -295 -300 0 -300 0
0 295 0 295 300 0 300 0 0 -295z m600 0 l0 -295 -295 0 -295 0 0 295 0 295
295 0 295 0 0 -295z m600 0 l0 -295 -295 0 -295 0 0 295 0 295 295 0 295 0 0
-295z m600 0 l0 -295 -295 0 -295 0 0 295 0 295 295 0 295 0 0 -295z m590 0
l0 -295 -290 0 -290 0 0 295 0 295 290 0 290 0 0 -295z m610 0 l0 -295 -300 0
-300 0 0 295 0 295 300 0 300 0 0 -295z m600 0 l0 -295 -295 0 -295 0 0 295 0
295 295 0 295 0 0 -295z m600 0 l0 -295 -295 0 -295 0 0 295 0 295 295 0 295
0 0 -295z m600 0 l0 -295 -295 0 -295 0 0 295 0 295 295 0 295 0 0 -295z m590
0 l0 -295 -290 0 -290 0 0 295 0 295 290 0 290 0 0 -295z m610 0 l0 -295 -300
0 -300 0 0 295 0 295 300 0 300 0 0 -295z m600 0 l0 -295 -295 0 -295 0 0 295
0 295 295 0 295 0 0 -295z m600 0 l0 -295 -295 0 -295 0 0 295 0 295 295 0
295 0 0 -295z m600 0 l0 -295 -295 0 -295 0 0 295 0 295 295 0 295 0 0 -295z
m590 0 l0 -295 -290 0 -290 0 0 295 0 295 290 0 290 0 0 -295z m610 0 l0 -295
-300 0 -300 0 0 295 0 295 300 0 300 0 0 -295z m600 0 l0 -295 -295 0 -295 0
0 295 0 295 295 0 295 0 0 -295z m600 0 l0 -295 -295 0 -295 0 0 295 0 295
295 0 295 0 0 -295z m-12000 -600 l0 -295 -295 0 -295 0 0 295 0 295 295 0
295 0 0 -295z m600 0 l0 -295 -295 0 -295 0 0 295 0 295 295 0 295 0 0 -295z
m590 0 l0 -295 -290 0 -290 0 0 295 0 295 290 0 290 0 0 -295z m610 0 l0 -295
-300 0 -300 0 0 295 0 295 300 0 300 0 0 -295z m600 0 l0 -295 -295 0 -295 0
0 295 0 295 295 0 295 0 0 -295z m600 0 l0 -295 -295 0 -295 0 0 295 0 295
295 0 295 0 0 -295z m600 0 l0 -295 -295 0 -295 0 0 295 0 295 295 0 295 0 0
-295z m590 0 l0 -295 -290 0 -290 0 0 295 0 295 290 0 290 0 0 -295z m610 0
l0 -295 -300 0 -300 0 0 295 0 295 300 0 300 0 0 -295z m600 0 l0 -295 -295 0
-295 0 0 295 0 295 295 0 295 0 0 -295z m600 0 l0 -295 -295 0 -295 0 0 295 0
295 295 0 295 0 0 -295z m600 0 l0 -295 -295 0 -295 0 0 295 0 295 295 0 295
0 0 -295z m590 0 l0 -295 -290 0 -290 0 0 295 0 295 290 0 290 0 0 -295z m610
0 l0 -295 -300 0 -300 0 0 295 0 295 300 0 300 0 0 -295z m600 0 l0 -295 -295
0 -295 0 0 295 0 295 295 0 295 0 0 -295z m600 0 l0 -295 -295 0 -295 0 0 295
0 295 295 0 295 0 0 -295z m600 0 l0 -295 -295 0 -295 0 0 295 0 295 295 0
295 0 0 -295z m590 0 l0 -295 -290 0 -290 0 0 295 0 295 290 0 290 0 0 -295z
m610 0 l0 -295 -300 0 -300 0 0 295 0 295 300 0 300 0 0 -295z m600 0 l0 -295
-295 0 -295 0 0 295 0 295 295 0 295 0 0 -295z m600 0 l0 -295 -295 0 -295 0
0 295 0 295 295 0 295 0 0 -295z m-12000 -600 l0 -295 -295 0 -295 0 0 295 0
295 295 0 295 0 0 -295z m600 0 l0 -295 -295 0 -295 0 0 295 0 295 295 0 295
0 0 -295z m590 0 l0 -295 -290 0 -290 0 0 295 0 295 290 0 290 0 0 -295z m610
0 l0 -295 -300 0 -300 0 0 295 0 295 300 0 300 0 0 -295z m600 0 l0 -295 -295
0 -295 0 0 295 0 295 295 0 295 0 0 -295z m600 0 l0 -295 -295 0 -295 0 0 295
0 295 295 0 295 0 0 -295z m600 0 l0 -295 -295 0 -295 0 0 295 0 295 295 0
295 0 0 -295z m590 0 l0 -295 -290 0 -290 0 0 295 0 295 290 0 290 0 0 -295z
m610 0 l0 -295 -300 0 -300 0 0 295 0 295 300 0 300 0 0 -295z m600 0 l0 -295
-295 0 -295 0 0 295 0 295 295 0 295 0 0 -295z m600 0 l0 -295 -295 0 -295 0
0 295 0 295 295 0 295 0 0 -295z m600 0 l0 -295 -295 0 -295 0 0 295 0 295
295 0 295 0 0 -295z m590 0 l0 -295 -290 0 -290 0 0 295 0 295 290 0 290 0 0
-295z m610 0 l0 -295 -300 0 -300 0 0 295 0 295 300 0 300 0 0 -295z m600 0
l0 -295 -295 0 -295 0 0 295 0 295 295 0 295 0 0 -295z m600 0 l0 -295 -295 0
-295 0 0 295 0 295 295 0 295 0 0 -295z m600 0 l0 -295 -295 0 -295 0 0 295 0
295 295 0 295 0 0 -295z m590 0 l0 -295 -290 0 -290 0 0 295 0 295 290 0 290
0 0 -295z m610 0 l0 -295 -300 0 -300 0 0 295 0 295 300 0 300 0 0 -295z m600
0 l0 -295 -295 0 -295 0 0 295 0 295 295 0 295 0 0 -295z m600 0 l0 -295 -295
0 -295 0 0 295 0 295 295 0 295 0 0 -295z m-12000 -595 l0 -290 -295 0 -295 0
0 290 0 290 295 0 295 0 0 -290z m600 0 l0 -290 -295 0 -295 0 0 290 0 290
295 0 295 0 0 -290z m590 0 l0 -290 -290 0 -290 0 0 290 0 290 290 0 290 0 0
-290z m610 0 l0 -290 -300 0 -300 0 0 290 0 290 300 0 300 0 0 -290z m600 0
l0 -290 -295 0 -295 0 0 290 0 290 295 0 295 0 0 -290z m600 0 l0 -290 -295 0
-295 0 0 290 0 290 295 0 295 0 0 -290z m600 0 l0 -290 -295 0 -295 0 0 290 0
290 295 0 295 0 0 -290z m590 0 l0 -290 -290 0 -290 0 0 290 0 290 290 0 290
0 0 -290z m610 0 l0 -290 -300 0 -300 0 0 290 0 290 300 0 300 0 0 -290z m600
0 l0 -290 -295 0 -295 0 0 290 0 290 295 0 295 0 0 -290z m600 0 l0 -290 -295
0 -295 0 0 290 0 290 295 0 295 0 0 -290z m600 0 l0 -290 -295 0 -295 0 0 290
0 290 295 0 295 0 0 -290z m590 0 l0 -290 -290 0 -290 0 0 290 0 290 290 0
290 0 0 -290z m610 0 l0 -290 -300 0 -300 0 0 290 0 290 300 0 300 0 0 -290z
m600 0 l0 -290 -295 0 -295 0 0 290 0 290 295 0 295 0 0 -290z m600 0 l0 -290
-295 0 -295 0 0 290 0 290 295 0 295 0 0 -290z m600 0 l0 -290 -295 0 -295 0
0 290 0 290 295 0 295 0 0 -290z m590 0 l0 -290 -290 0 -290 0 0 290 0 290
290 0 290 0 0 -290z m610 0 l0 -290 -300 0 -300 0 0 290 0 290 300 0 300 0 0
-290z m600 0 l0 -290 -295 0 -295 0 0 290 0 290 295 0 295 0 0 -290z m600 0
l0 -290 -295 0 -295 0 0 290 0 290 295 0 295 0 0 -290z m-12000 -600 l0 -300
-295 0 -295 0 0 300 0 300 295 0 295 0 0 -300z m600 0 l0 -300 -295 0 -295 0
0 300 0 300 295 0 295 0 0 -300z m590 0 l0 -300 -290 0 -290 0 0 300 0 300
290 0 290 0 0 -300z m610 0 l0 -300 -300 0 -300 0 0 300 0 300 300 0 300 0 0
-300z m600 0 l0 -300 -295 0 -295 0 0 300 0 300 295 0 295 0 0 -300z m600 0
l0 -300 -295 0 -295 0 0 300 0 300 295 0 295 0 0 -300z m600 0 l0 -300 -295 0
-295 0 0 300 0 300 295 0 295 0 0 -300z m590 0 l0 -300 -290 0 -290 0 0 300 0
300 290 0 290 0 0 -300z m610 0 l0 -300 -300 0 -300 0 0 300 0 300 300 0 300
0 0 -300z m600 0 l0 -300 -295 0 -295 0 0 300 0 300 295 0 295 0 0 -300z m600
0 l0 -300 -295 0 -295 0 0 300 0 300 295 0 295 0 0 -300z m600 0 l0 -300 -295
0 -295 0 0 300 0 300 295 0 295 0 0 -300z m590 0 l0 -300 -290 0 -290 0 0 300
0 300 290 0 290 0 0 -300z m610 0 l0 -300 -300 0 -300 0 0 300 0 300 300 0
300 0 0 -300z m600 0 l0 -300 -295 0 -295 0 0 300 0 300 295 0 295 0 0 -300z
m600 0 l0 -300 -295 0 -295 0 0 300 0 300 295 0 295 0 0 -300z m600 0 l0 -300
-295 0 -295 0 0 300 0 300 295 0 295 0 0 -300z m590 0 l0 -300 -290 0 -290 0
0 300 0 300 290 0 290 0 0 -300z m610 0 l0 -300 -300 0 -300 0 0 300 0 300
300 0 300 0 0 -300z m600 0 l0 -300 -295 0 -295 0 0 300 0 300 295 0 295 0 0
-300z m600 0 l0 -300 -295 0 -295 0 0 300 0 300 295 0 295 0 0 -300z m-12000
-605 l0 -295 -295 0 -295 0 0 295 0 295 295 0 295 0 0 -295z m600 0 l0 -295
-295 0 -295 0 0 295 0 295 295 0 295 0 0 -295z m590 0 l0 -295 -290 0 -290 0
0 295 0 295 290 0 290 0 0 -295z m610 0 l0 -295 -300 0 -300 0 0 295 0 295
300 0 300 0 0 -295z m600 0 l0 -295 -295 0 -295 0 0 295 0 295 295 0 295 0 0
-295z m600 0 l0 -295 -295 0 -295 0 0 295 0 295 295 0 295 0 0 -295z m600 0
l0 -295 -295 0 -295 0 0 295 0 295 295 0 295 0 0 -295z m590 0 l0 -295 -290 0
-290 0 0 295 0 295 290 0 290 0 0 -295z m610 0 l0 -295 -300 0 -300 0 0 295 0
295 300 0 300 0 0 -295z m600 0 l0 -295 -295 0 -295 0 0 295 0 295 295 0 295
0 0 -295z m600 0 l0 -295 -295 0 -295 0 0 295 0 295 295 0 295 0 0 -295z m600
0 l0 -295 -295 0 -295 0 0 295 0 295 295 0 295 0 0 -295z m590 0 l0 -295 -290
0 -290 0 0 295 0 295 290 0 290 0 0 -295z m610 0 l0 -295 -300 0 -300 0 0 295
0 295 300 0 300 0 0 -295z m600 0 l0 -295 -295 0 -295 0 0 295 0 295 295 0
295 0 0 -295z m600 0 l0 -295 -295 0 -295 0 0 295 0 295 295 0 295 0 0 -295z
m600 0 l0 -295 -295 0 -295 0 0 295 0 295 295 0 295 0 0 -295z m590 0 l0 -295
-290 0 -290 0 0 295 0 295 290 0 290 0 0 -295z m610 0 l0 -295 -300 0 -300 0
0 295 0 295 300 0 300 0 0 -295z m600 0 l0 -295 -295 0 -295 0 0 295 0 295
295 0 295 0 0 -295z m600 0 l0 -295 -295 0 -295 0 0 295 0 295 295 0 295 0 0
-295z m-12000 -600 l0 -295 -295 0 -295 0 0 295 0 295 295 0 295 0 0 -295z
m600 0 l0 -295 -295 0 -295 0 0 295 0 295 295 0 295 0 0 -295z m590 0 l0 -295
-290 0 -290 0 0 295 0 295 290 0 290 0 0 -295z m610 0 l0 -295 -300 0 -300 0
0 295 0 295 300 0 300 0 0 -295z m600 0 l0 -295 -295 0 -295 0 0 295 0 295
295 0 295 0 0 -295z m600 0 l0 -295 -295 0 -295 0 0 295 0 295 295 0 295 0 0
-295z m600 0 l0 -295 -295 0 -295 0 0 295 0 295 295 0 295 0 0 -295z m590 0
l0 -295 -290 0 -290 0 0 295 0 295 290 0 290 0 0 -295z m610 0 l0 -295 -300 0
-300 0 0 295 0 295 300 0 300 0 0 -295z m600 0 l0 -295 -295 0 -295 0 0 295 0
295 295 0 295 0 0 -295z m600 0 l0 -295 -295 0 -295 0 0 295 0 295 295 0 295
0 0 -295z m600 0 l0 -295 -295 0 -295 0 0 295 0 295 295 0 295 0 0 -295z m590
0 l0 -295 -290 0 -290 0 0 295 0 295 290 0 290 0 0 -295z m610 0 l0 -295 -300
0 -300 0 0 295 0 295 300 0 300 0 0 -295z m600 0 l0 -295 -295 0 -295 0 0 295
0 295 295 0 295 0 0 -295z m600 0 l0 -295 -295 0 -295 0 0 295 0 295 295 0
295 0 0 -295z m600 0 l0 -295 -295 0 -295 0 0 295 0 295 295 0 295 0 0 -295z
m590 0 l0 -295 -290 0 -290 0 0 295 0 295 290 0 290 0 0 -295z m610 0 l0 -295
-300 0 -300 0 0 295 0 295 300 0 300 0 0 -295z m600 0 l0 -295 -295 0 -295 0
0 295 0 295 295 0 295 0 0 -295z m600 0 l0 -295 -295 0 -295 0 0 295 0 295
295 0 295 0 0 -295z m-12000 -600 l0 -295 -295 0 -295 0 0 295 0 295 295 0
295 0 0 -295z m600 0 l0 -295 -295 0 -295 0 0 295 0 295 295 0 295 0 0 -295z
m590 0 l0 -295 -290 0 -290 0 0 295 0 295 290 0 290 0 0 -295z m610 0 l0 -295
-300 0 -300 0 0 295 0 295 300 0 300 0 0 -295z m600 0 l0 -295 -295 0 -295 0
0 295 0 295 295 0 295 0 0 -295z m600 0 l0 -295 -295 0 -295 0 0 295 0 295
295 0 295 0 0 -295z m600 0 l0 -295 -295 0 -295 0 0 295 0 295 295 0 295 0 0
-295z m590 0 l0 -295 -290 0 -290 0 0 295 0 295 290 0 290 0 0 -295z m610 0
l0 -295 -300 0 -300 0 0 295 0 295 300 0 300 0 0 -295z m600 0 l0 -295 -295 0
-295 0 0 295 0 295 295 0 295 0 0 -295z m600 0 l0 -295 -295 0 -295 0 0 295 0
295 295 0 295 0 0 -295z m600 0 l0 -295 -295 0 -295 0 0 295 0 295 295 0 295
0 0 -295z m590 0 l0 -295 -290 0 -290 0 0 295 0 295 290 0 290 0 0 -295z m610
0 l0 -295 -300 0 -300 0 0 295 0 295 300 0 300 0 0 -295z m600 0 l0 -295 -295
0 -295 0 0 295 0 295 295 0 295 0 0 -295z m600 0 l0 -295 -295 0 -295 0 0 295
0 295 295 0 295 0 0 -295z m600 0 l0 -295 -295 0 -295 0 0 295 0 295 295 0
295 0 0 -295z m590 0 l0 -295 -290 0 -290 0 0 295 0 295 290 0 290 0 0 -295z
m610 0 l0 -295 -300 0 -300 0 0 295 0 295 300 0 300 0 0 -295z m600 0 l0 -295
-295 0 -295 0 0 295 0 295 295 0 295 0 0 -295z m600 0 l0 -295 -295 0 -295 0
0 295 0 295 295 0 295 0 0 -295z m-12000 -595 l0 -290 -295 0 -295 0 0 290 0
290 295 0 295 0 0 -290z m600 0 l0 -290 -295 0 -295 0 0 290 0 290 295 0 295
0 0 -290z m590 0 l0 -290 -290 0 -290 0 0 290 0 290 290 0 290 0 0 -290z m610
0 l0 -290 -300 0 -300 0 0 290 0 290 300 0 300 0 0 -290z m600 0 l0 -290 -295
0 -295 0 0 290 0 290 295 0 295 0 0 -290z m600 0 l0 -290 -295 0 -295 0 0 290
0 290 295 0 295 0 0 -290z m600 0 l0 -290 -295 0 -295 0 0 290 0 290 295 0
295 0 0 -290z m590 0 l0 -290 -290 0 -290 0 0 290 0 290 290 0 290 0 0 -290z
m610 0 l0 -290 -300 0 -300 0 0 290 0 290 300 0 300 0 0 -290z m600 0 l0 -290
-295 0 -295 0 0 290 0 290 295 0 295 0 0 -290z m600 0 l0 -290 -295 0 -295 0
0 290 0 290 295 0 295 0 0 -290z m600 0 l0 -290 -295 0 -295 0 0 290 0 290
295 0 295 0 0 -290z m590 0 l0 -290 -290 0 -290 0 0 290 0 290 290 0 290 0 0
-290z m610 0 l0 -290 -300 0 -300 0 0 290 0 290 300 0 300 0 0 -290z m600 0
l0 -290 -295 0 -295 0 0 290 0 290 295 0 295 0 0 -290z m600 0 l0 -290 -295 0
-295 0 0 290 0 290 295 0 295 0 0 -290z m600 0 l0 -290 -295 0 -295 0 0 290 0
290 295 0 295 0 0 -290z m590 0 l0 -290 -290 0 -290 0 0 290 0 290 290 0 290
0 0 -290z m610 0 l0 -290 -300 0 -300 0 0 290 0 290 300 0 300 0 0 -290z m600
0 l0 -290 -295 0 -295 0 0 290 0 290 295 0 295 0 0 -290z m600 0 l0 -290 -295
0 -295 0 0 290 0 290 295 0 295 0 0 -290z m-12000 -600 l0 -300 -295 0 -295 0
0 300 0 300 295 0 295 0 0 -300z m600 0 l0 -300 -295 0 -295 0 0 300 0 300
295 0 295 0 0 -300z m590 0 l0 -300 -290 0 -290 0 0 300 0 300 290 0 290 0 0
-300z m610 0 l0 -300 -300 0 -300 0 0 300 0 300 300 0 300 0 0 -300z m600 0
l0 -300 -295 0 -295 0 0 300 0 300 295 0 295 0 0 -300z m600 0 l0 -300 -295 0
-295 0 0 300 0 300 295 0 295 0 0 -300z m600 0 l0 -300 -295 0 -295 0 0 300 0
300 295 0 295 0 0 -300z m590 0 l0 -300 -290 0 -290 0 0 300 0 300 290 0 290
0 0 -300z m610 0 l0 -300 -300 0 -300 0 0 300 0 300 300 0 300 0 0 -300z m600
0 l0 -300 -295 0 -295 0 0 300 0 300 295 0 295 0 0 -300z m600 0 l0 -300 -295
0 -295 0 0 300 0 300 295 0 295 0 0 -300z m600 0 l0 -300 -295 0 -295 0 0 300
0 300 295 0 295 0 0 -300z m590 0 l0 -300 -290 0 -290 0 0 300 0 300 290 0
290 0 0 -300z m610 0 l0 -300 -300 0 -300 0 0 300 0 300 300 0 300 0 0 -300z
m600 0 l0 -300 -295 0 -295 0 0 300 0 300 295 0 295 0 0 -300z m600 0 l0 -300
-295 0 -295 0 0 300 0 300 295 0 295 0 0 -300z m600 0 l0 -300 -295 0 -295 0
0 300 0 300 295 0 295 0 0 -300z m590 0 l0 -300 -290 0 -290 0 0 300 0 300
290 0 290 0 0 -300z m610 0 l0 -300 -300 0 -300 0 0 300 0 300 300 0 300 0 0
-300z m600 0 l0 -300 -295 0 -295 0 0 300 0 300 295 0 295 0 0 -300z m600 0
l0 -300 -295 0 -295 0 0 300 0 300 295 0 295 0 0 -300z"/>
</g>
</svg>
