<?xml version="1.0" standalone="no"?>
<!DOCTYPE svg PUBLIC "-//W3C//DTD SVG 20010904//EN"
 "http://www.w3.org/TR/2001/REC-SVG-20010904/DTD/svg10.dtd">
<svg version="1.0" xmlns="http://www.w3.org/2000/svg"
 width="100.000000pt" height="100.000000pt" viewBox="0 0 100.000000 100.000000"
 preserveAspectRatio="xMidYMid meet">

<g transform="translate(0.000000,100.000000) scale(0.100000,-0.100000)"
fill="#000000" stroke="none">
<path d="M536 903 c-3 -3 -6 -16 -6 -28 0 -26 -15 -40 -52 -49 -31 -7 -38 -26
-10 -26 26 0 60 -27 64 -52 5 -34 23 -31 33 4 8 25 18 35 43 43 34 10 38 28 6
34 -27 5 -54 31 -54 52 0 20 -13 32 -24 22z"/>
<path d="M273 835 c-136 -91 -202 -254 -169 -414 64 -307 424 -428 666 -225
29 25 103 124 97 130 -2 2 -27 -4 -56 -13 -87 -25 -200 -15 -283 26 -83 41
-159 119 -195 198 -34 75 -42 196 -20 274 9 29 15 54 13 56 -1 1 -25 -13 -53
-32z"/>
<path d="M780 676 c0 -30 -36 -76 -60 -76 -29 0 -50 -11 -50 -26 0 -9 11 -14
30 -14 41 0 80 -39 80 -80 0 -44 27 -40 36 6 8 44 39 74 76 74 43 0 35 27 -11
40 -45 12 -56 23 -66 68 -8 37 -35 44 -35 8z"/>
</g>
</svg>
