<?xml version="1.0" standalone="no"?>
<!DOCTYPE svg PUBLIC "-//W3C//DTD SVG 20010904//EN"
 "http://www.w3.org/TR/2001/REC-SVG-20010904/DTD/svg10.dtd">
<svg version="1.0" xmlns="http://www.w3.org/2000/svg"
 width="100.000000pt" height="100.000000pt" viewBox="0 0 100.000000 100.000000"
 preserveAspectRatio="xMidYMid meet">

<g transform="translate(0.000000,100.000000) scale(0.100000,-0.100000)"
fill="#000000" stroke="none">
<path d="M182 757 c-21 -22 -22 -31 -22 -233 0 -166 3 -214 14 -230 12 -16 30
-20 123 -24 98 -5 108 -7 111 -25 2 -13 -5 -24 -20 -30 -13 -6 -23 -19 -23
-30 0 -19 7 -20 135 -20 128 0 135 1 135 20 0 11 -10 24 -23 30 -15 6 -22 17
-20 30 3 18 13 20 111 25 93 4 111 8 123 24 11 16 14 65 14 231 0 208 0 212
-23 233 -23 22 -29 22 -318 22 l-296 0 -21 -23z m596 -194 l3 -153 -281 0
-280 0 0 148 c0 82 3 152 7 155 4 4 128 6 277 5 l271 -3 3 -152z"/>
</g>
</svg>
