<svg width="316.371" height="46.591" viewBox="0 0 316.371 46.591" xmlns="http://www.w3.org/2000/svg"><g id="svgGroup" stroke-linecap="round" fill-rule="evenodd" font-size="9pt" stroke="#000" stroke-width="0.25mm" fill="#000" style="stroke:#000;stroke-width:0.25mm;fill:#000"><path d="M 262.695 22.443 L 262.695 24.325 L 241.016 24.325 L 241.016 20.348 L 257.493 20.348 A 8.78 8.78 0 0 0 257.259 18.284 A 7.166 7.166 0 0 0 256.641 16.628 Q 255.788 15.004 254.252 14.063 A 6.354 6.354 0 0 0 251.774 13.196 A 8.144 8.144 0 0 0 250.657 13.121 A 7.729 7.729 0 0 0 248.564 13.394 A 6.408 6.408 0 0 0 246.76 14.213 A 7.379 7.379 0 0 0 244.203 17.054 A 8.188 8.188 0 0 0 243.306 20.845 L 243.306 23.952 Q 243.306 26.687 244.274 28.604 A 7.135 7.135 0 0 0 245.785 30.644 A 6.593 6.593 0 0 0 246.982 31.525 A 7.449 7.449 0 0 0 249.651 32.43 A 9.642 9.642 0 0 0 251.048 32.528 A 9.101 9.101 0 0 0 252.661 32.391 A 7.42 7.42 0 0 0 253.8 32.093 Q 255.043 31.658 255.948 30.788 A 5.584 5.584 0 0 0 257.173 29.029 A 6.614 6.614 0 0 0 257.333 28.64 L 262.358 29.545 Q 261.754 31.765 260.201 33.425 A 10.131 10.131 0 0 1 257.194 35.614 A 12.202 12.202 0 0 1 256.312 36 A 13.042 13.042 0 0 1 253.311 36.763 A 17.118 17.118 0 0 1 250.994 36.914 A 15.795 15.795 0 0 1 247.683 36.583 A 11.869 11.869 0 0 1 244.061 35.183 Q 241.158 33.452 239.586 30.3 A 14.624 14.624 0 0 1 238.274 26.173 A 19.718 19.718 0 0 1 238.015 22.905 A 18.965 18.965 0 0 1 238.396 19.021 A 14.732 14.732 0 0 1 239.586 15.518 A 12.429 12.429 0 0 1 242.343 11.787 A 11.719 11.719 0 0 1 243.99 10.529 A 11.53 11.53 0 0 1 248.782 8.848 A 14.705 14.705 0 0 1 250.621 8.736 A 13.364 13.364 0 0 1 255.096 9.499 A 10.837 10.837 0 0 1 258.984 11.896 A 10.334 10.334 0 0 1 260.892 14.386 A 13.424 13.424 0 0 1 261.701 16.131 Q 262.695 18.732 262.695 22.443 Z M 151.225 20.17 L 151.225 36.364 L 145.916 36.364 L 145.916 0 L 151.154 0 L 151.154 13.53 L 151.491 13.53 A 7.838 7.838 0 0 1 154.421 10.032 Q 156.392 8.736 159.57 8.736 A 11.527 11.527 0 0 1 162.123 9.007 A 9.018 9.018 0 0 1 164.48 9.89 A 7.816 7.816 0 0 1 167.598 13.045 A 9.514 9.514 0 0 1 167.747 13.326 A 9.929 9.929 0 0 1 168.582 15.712 Q 168.828 16.832 168.889 18.131 A 18.713 18.713 0 0 1 168.91 19.016 L 168.91 36.364 L 163.601 36.364 L 163.601 19.656 A 9.405 9.405 0 0 0 163.435 17.831 Q 163.216 16.728 162.712 15.875 A 5.079 5.079 0 0 0 162.056 14.995 A 5.063 5.063 0 0 0 159.324 13.489 A 7.536 7.536 0 0 0 157.759 13.335 A 7.583 7.583 0 0 0 155.775 13.586 A 6.436 6.436 0 0 0 154.395 14.134 Q 152.912 14.933 152.069 16.468 A 6.605 6.605 0 0 0 151.387 18.396 Q 151.225 19.223 151.225 20.17 Z M 63.033 20.17 L 63.033 36.364 L 57.724 36.364 L 57.724 9.091 L 62.82 9.091 L 62.82 13.53 L 63.157 13.53 Q 64.098 11.364 66.113 10.05 A 7.743 7.743 0 0 1 68.633 9.006 Q 69.662 8.77 70.856 8.74 A 13.95 13.95 0 0 1 71.2 8.736 Q 73.988 8.736 76.083 9.899 A 7.816 7.816 0 0 1 79.175 13.053 A 9.547 9.547 0 0 1 79.332 13.352 A 10.127 10.127 0 0 1 80.18 15.825 Q 80.487 17.277 80.487 19.016 L 80.487 36.364 L 75.178 36.364 L 75.178 19.656 A 9.164 9.164 0 0 0 74.996 17.772 Q 74.751 16.606 74.176 15.716 A 5.181 5.181 0 0 0 73.633 15.012 A 5.085 5.085 0 0 0 70.704 13.446 A 7.413 7.413 0 0 0 69.389 13.335 Q 67.543 13.335 66.113 14.134 A 5.639 5.639 0 0 0 63.964 16.279 A 6.775 6.775 0 0 0 63.858 16.468 A 6.695 6.695 0 0 0 63.192 18.388 Q 63.038 19.193 63.033 20.111 A 11.307 11.307 0 0 0 63.033 20.17 Z M 92.898 20.17 L 92.898 36.364 L 87.589 36.364 L 87.589 9.091 L 92.685 9.091 L 92.685 13.53 L 93.022 13.53 Q 93.963 11.364 95.978 10.05 A 7.743 7.743 0 0 1 98.498 9.006 Q 99.527 8.77 100.721 8.74 A 13.95 13.95 0 0 1 101.065 8.736 Q 103.853 8.736 105.948 9.899 A 7.816 7.816 0 0 1 109.04 13.053 A 9.547 9.547 0 0 1 109.197 13.352 A 10.127 10.127 0 0 1 110.045 15.825 Q 110.352 17.277 110.352 19.016 L 110.352 36.364 L 105.043 36.364 L 105.043 19.656 A 9.164 9.164 0 0 0 104.861 17.772 Q 104.616 16.606 104.042 15.716 A 5.181 5.181 0 0 0 103.498 15.012 A 5.085 5.085 0 0 0 100.569 13.446 A 7.413 7.413 0 0 0 99.254 13.335 Q 97.408 13.335 95.978 14.134 A 5.639 5.639 0 0 0 93.829 16.279 A 6.775 6.775 0 0 0 93.723 16.468 A 6.695 6.695 0 0 0 93.057 18.388 Q 92.903 19.193 92.898 20.111 A 11.307 11.307 0 0 0 92.898 20.17 Z M 45.277 25.053 L 45.277 9.091 L 50.604 9.091 L 50.604 36.364 L 45.384 36.364 L 45.384 31.641 L 45.099 31.641 A 8.433 8.433 0 0 1 42.25 35.157 A 10.079 10.079 0 0 1 42.09 35.272 A 7.82 7.82 0 0 1 39.112 36.515 A 10.951 10.951 0 0 1 36.95 36.719 A 10.093 10.093 0 0 1 34.366 36.4 A 8.376 8.376 0 0 1 32.306 35.556 A 7.77 7.77 0 0 1 29.525 32.791 A 9.685 9.685 0 0 1 29.146 32.102 Q 28.13 30.07 28.015 27.185 A 18.826 18.826 0 0 1 28.001 26.438 L 28.001 9.091 L 33.31 9.091 L 33.31 25.799 A 8.165 8.165 0 0 0 33.509 27.656 A 5.545 5.545 0 0 0 34.854 30.238 A 5.14 5.14 0 0 0 38.394 31.873 A 6.994 6.994 0 0 0 38.867 31.889 A 6.322 6.322 0 0 0 41.192 31.434 A 7.726 7.726 0 0 0 41.841 31.143 A 6.209 6.209 0 0 0 44.055 29.254 A 7.511 7.511 0 0 0 44.309 28.888 A 5.683 5.683 0 0 0 45.075 27.046 Q 45.285 26.139 45.277 25.053 Z M 21.644 15.749 L 16.832 16.602 A 5.67 5.67 0 0 0 16.086 15.12 A 6.594 6.594 0 0 0 15.882 14.844 A 4.486 4.486 0 0 0 14.807 13.859 A 5.738 5.738 0 0 0 14.134 13.477 Q 13.19 13.02 11.843 12.955 A 9.53 9.53 0 0 0 11.381 12.944 A 8.373 8.373 0 0 0 9.688 13.106 Q 8.519 13.348 7.617 13.947 A 3.937 3.937 0 0 0 6.789 14.668 A 2.789 2.789 0 0 0 6.108 16.531 A 2.985 2.985 0 0 0 6.302 17.625 A 2.694 2.694 0 0 0 7.12 18.732 Q 8.132 19.567 10.387 20.099 L 14.719 21.094 A 18.066 18.066 0 0 1 16.885 21.729 Q 18.007 22.142 18.888 22.673 A 7.79 7.79 0 0 1 20.33 23.775 A 6.083 6.083 0 0 1 22.132 27.602 A 8.337 8.337 0 0 1 22.177 28.48 A 7.141 7.141 0 0 1 20.765 32.839 A 8.753 8.753 0 0 1 18.236 35.115 A 11.28 11.28 0 0 1 16.841 35.831 A 12.947 12.947 0 0 1 13.672 36.721 A 17.395 17.395 0 0 1 11.026 36.914 A 17.506 17.506 0 0 1 7.859 36.644 Q 5.371 36.186 3.551 34.952 A 8.195 8.195 0 0 1 0.032 29.537 A 10.727 10.727 0 0 1 0 29.368 L 5.131 28.587 A 5.747 5.747 0 0 0 5.714 30.101 A 4.511 4.511 0 0 0 7.102 31.614 A 5.489 5.489 0 0 0 8.851 32.388 Q 9.571 32.573 10.415 32.619 A 10.501 10.501 0 0 0 10.991 32.635 A 10.165 10.165 0 0 0 12.661 32.506 Q 14.138 32.26 15.163 31.543 A 4.438 4.438 0 0 0 15.987 30.813 A 2.891 2.891 0 0 0 16.726 28.871 Q 16.726 27.592 15.776 26.722 A 4.173 4.173 0 0 0 14.922 26.13 Q 14.482 25.894 13.931 25.705 A 10.328 10.328 0 0 0 12.873 25.408 L 8.256 24.396 A 17.207 17.207 0 0 1 6.066 23.752 Q 4.934 23.329 4.053 22.778 A 7.445 7.445 0 0 1 2.619 21.626 Q 0.799 19.727 0.799 16.815 A 7.279 7.279 0 0 1 1.244 14.24 A 6.671 6.671 0 0 1 2.148 12.589 A 8.377 8.377 0 0 1 4.616 10.396 A 10.728 10.728 0 0 1 5.877 9.757 A 12.403 12.403 0 0 1 9.034 8.892 A 16.273 16.273 0 0 1 11.328 8.736 A 16.553 16.553 0 0 1 14.086 8.951 Q 15.58 9.204 16.781 9.754 A 8.117 8.117 0 0 1 18.288 10.645 A 8.961 8.961 0 0 1 21.644 15.749 Z M 289.045 15.749 L 284.233 16.602 A 5.67 5.67 0 0 0 283.486 15.12 A 6.594 6.594 0 0 0 283.283 14.844 A 4.486 4.486 0 0 0 282.208 13.859 A 5.738 5.738 0 0 0 281.534 13.477 Q 280.591 13.02 279.244 12.955 A 9.53 9.53 0 0 0 278.782 12.944 A 8.373 8.373 0 0 0 277.088 13.106 Q 275.92 13.348 275.018 13.947 A 3.937 3.937 0 0 0 274.19 14.668 A 2.789 2.789 0 0 0 273.509 16.531 A 2.985 2.985 0 0 0 273.702 17.625 A 2.694 2.694 0 0 0 274.521 18.732 Q 275.533 19.567 277.788 20.099 L 282.12 21.094 A 18.066 18.066 0 0 1 284.285 21.729 Q 285.407 22.142 286.288 22.673 A 7.79 7.79 0 0 1 287.731 23.775 A 6.083 6.083 0 0 1 289.532 27.602 A 8.337 8.337 0 0 1 289.577 28.48 A 7.141 7.141 0 0 1 288.166 32.839 A 8.753 8.753 0 0 1 285.637 35.115 A 11.28 11.28 0 0 1 284.242 35.831 A 12.947 12.947 0 0 1 281.073 36.721 A 17.395 17.395 0 0 1 278.427 36.914 A 17.506 17.506 0 0 1 275.259 36.644 Q 272.772 36.186 270.952 34.952 A 8.195 8.195 0 0 1 267.433 29.537 A 10.727 10.727 0 0 1 267.401 29.368 L 272.532 28.587 A 5.747 5.747 0 0 0 273.115 30.101 A 4.511 4.511 0 0 0 274.503 31.614 A 5.489 5.489 0 0 0 276.251 32.388 Q 276.971 32.573 277.815 32.619 A 10.501 10.501 0 0 0 278.391 32.635 A 10.165 10.165 0 0 0 280.062 32.506 Q 281.539 32.26 282.564 31.543 A 4.438 4.438 0 0 0 283.388 30.813 A 2.891 2.891 0 0 0 284.126 28.871 Q 284.126 27.592 283.176 26.722 A 4.173 4.173 0 0 0 282.323 26.13 Q 281.883 25.894 281.332 25.705 A 10.328 10.328 0 0 0 280.273 25.408 L 275.657 24.396 A 17.207 17.207 0 0 1 273.466 23.752 Q 272.334 23.329 271.453 22.778 A 7.445 7.445 0 0 1 270.02 21.626 Q 268.2 19.727 268.2 16.815 A 7.279 7.279 0 0 1 268.645 14.24 A 6.671 6.671 0 0 1 269.549 12.589 A 8.377 8.377 0 0 1 272.017 10.396 A 10.728 10.728 0 0 1 273.278 9.757 A 12.403 12.403 0 0 1 276.435 8.892 A 16.273 16.273 0 0 1 278.729 8.736 A 16.553 16.553 0 0 1 281.487 8.951 Q 282.981 9.204 284.182 9.754 A 8.117 8.117 0 0 1 285.689 10.645 A 8.961 8.961 0 0 1 289.045 15.749 Z M 315.838 15.749 L 311.026 16.602 A 5.67 5.67 0 0 0 310.28 15.12 A 6.594 6.594 0 0 0 310.076 14.844 A 4.486 4.486 0 0 0 309.001 13.859 A 5.738 5.738 0 0 0 308.327 13.477 Q 307.384 13.02 306.037 12.955 A 9.53 9.53 0 0 0 305.575 12.944 A 8.373 8.373 0 0 0 303.881 13.106 Q 302.713 13.348 301.811 13.947 A 3.937 3.937 0 0 0 300.983 14.668 A 2.789 2.789 0 0 0 300.302 16.531 A 2.985 2.985 0 0 0 300.496 17.625 A 2.694 2.694 0 0 0 301.314 18.732 Q 302.326 19.567 304.581 20.099 L 308.913 21.094 A 18.066 18.066 0 0 1 311.079 21.729 Q 312.201 22.142 313.082 22.673 A 7.79 7.79 0 0 1 314.524 23.775 A 6.083 6.083 0 0 1 316.326 27.602 A 8.337 8.337 0 0 1 316.371 28.48 A 7.141 7.141 0 0 1 314.959 32.839 A 8.753 8.753 0 0 1 312.43 35.115 A 11.28 11.28 0 0 1 311.035 35.831 A 12.947 12.947 0 0 1 307.866 36.721 A 17.395 17.395 0 0 1 305.22 36.914 A 17.506 17.506 0 0 1 302.053 36.644 Q 299.565 36.186 297.745 34.952 A 8.195 8.195 0 0 1 294.226 29.537 A 10.727 10.727 0 0 1 294.194 29.368 L 299.325 28.587 A 5.747 5.747 0 0 0 299.908 30.101 A 4.511 4.511 0 0 0 301.296 31.614 A 5.489 5.489 0 0 0 303.044 32.388 Q 303.765 32.573 304.608 32.619 A 10.501 10.501 0 0 0 305.185 32.635 A 10.165 10.165 0 0 0 306.855 32.506 Q 308.332 32.26 309.357 31.543 A 4.438 4.438 0 0 0 310.181 30.813 A 2.891 2.891 0 0 0 310.92 28.871 Q 310.92 27.592 309.97 26.722 A 4.173 4.173 0 0 0 309.116 26.13 Q 308.676 25.894 308.125 25.705 A 10.328 10.328 0 0 0 307.067 25.408 L 302.45 24.396 A 17.207 17.207 0 0 1 300.259 23.752 Q 299.127 23.329 298.246 22.778 A 7.445 7.445 0 0 1 296.813 21.626 Q 294.993 19.727 294.993 16.815 A 7.279 7.279 0 0 1 295.438 14.24 A 6.671 6.671 0 0 1 296.342 12.589 A 8.377 8.377 0 0 1 298.81 10.396 A 10.728 10.728 0 0 1 300.071 9.757 A 12.403 12.403 0 0 1 303.228 8.892 A 16.273 16.273 0 0 1 305.522 8.736 A 16.553 16.553 0 0 1 308.28 8.951 Q 309.774 9.204 310.975 9.754 A 8.117 8.117 0 0 1 312.482 10.645 A 8.961 8.961 0 0 1 315.838 15.749 Z M 195.472 46.591 L 190.163 46.591 L 190.163 9.091 L 195.348 9.091 L 195.348 13.512 L 195.792 13.512 A 10.29 10.29 0 0 1 196.196 12.835 Q 196.424 12.482 196.708 12.092 A 22.28 22.28 0 0 1 197.124 11.541 A 6.557 6.557 0 0 1 198.238 10.43 Q 198.778 10.003 199.448 9.629 A 10.837 10.837 0 0 1 199.538 9.579 Q 200.748 8.919 202.568 8.775 A 13.45 13.45 0 0 1 203.622 8.736 A 11.148 11.148 0 0 1 207.473 9.388 A 10.268 10.268 0 0 1 209.517 10.405 Q 212.109 12.074 213.592 15.217 Q 214.985 18.169 215.069 22.25 A 25.685 25.685 0 0 1 215.075 22.781 A 22.194 22.194 0 0 1 214.812 26.285 Q 214.503 28.215 213.831 29.832 A 13.178 13.178 0 0 1 213.601 30.353 A 12.685 12.685 0 0 1 211.788 33.216 A 10.519 10.519 0 0 1 209.553 35.201 A 10.34 10.34 0 0 1 204.136 36.888 A 12.575 12.575 0 0 1 203.675 36.896 Q 201.788 36.896 200.428 36.415 A 5.961 5.961 0 0 1 199.618 36.062 Q 198.102 35.257 197.222 34.187 A 5.774 5.774 0 0 1 197.159 34.109 A 20.561 20.561 0 0 1 196.551 33.305 Q 196.271 32.914 196.05 32.56 A 9.645 9.645 0 0 1 195.792 32.12 L 195.472 32.12 L 195.472 46.591 Z M 133.523 18.04 L 133.523 17.915 A 6.646 6.646 0 0 0 133.372 16.456 Q 133.15 15.47 132.602 14.747 A 3.95 3.95 0 0 0 132.218 14.311 Q 131.137 13.252 129.186 13.07 A 9.135 9.135 0 0 0 128.338 13.033 A 9.837 9.837 0 0 0 126.666 13.166 Q 125.141 13.429 124.121 14.213 A 7.999 7.999 0 0 0 123.03 15.215 Q 122.411 15.907 122.067 16.673 A 4.972 4.972 0 0 0 121.999 16.832 L 117.01 15.696 A 10.827 10.827 0 0 1 118.104 13.448 A 8.743 8.743 0 0 1 119.611 11.674 A 10.594 10.594 0 0 1 123.562 9.437 Q 125.799 8.736 128.267 8.736 A 15.81 15.81 0 0 1 130.389 8.885 A 19.528 19.528 0 0 1 131.738 9.118 A 10.375 10.375 0 0 1 135.183 10.511 A 7.349 7.349 0 0 1 137.269 12.514 A 9.169 9.169 0 0 1 137.82 13.397 A 7.578 7.578 0 0 1 138.524 15.248 Q 138.737 16.119 138.811 17.141 A 15.51 15.51 0 0 1 138.849 18.253 L 138.849 36.364 L 133.665 36.364 L 133.665 32.635 L 133.452 32.635 A 6.466 6.466 0 0 1 132.772 33.703 Q 132.398 34.185 131.907 34.659 A 7.209 7.209 0 0 1 130.566 35.669 A 9.795 9.795 0 0 1 129.261 36.31 Q 127.646 36.967 125.391 36.967 A 11.971 11.971 0 0 1 122.559 36.644 A 10.093 10.093 0 0 1 120.703 36 A 7.776 7.776 0 0 1 117.392 33.185 A 7.211 7.211 0 0 1 116.348 30.56 A 9.998 9.998 0 0 1 116.175 28.658 A 9.863 9.863 0 0 1 116.3 27.041 Q 116.447 26.162 116.764 25.44 A 5.345 5.345 0 0 1 117.063 24.858 A 6.552 6.552 0 0 1 119.46 22.496 A 12.07 12.07 0 0 1 121.924 21.431 A 14.109 14.109 0 0 1 122.834 21.183 A 33.539 33.539 0 0 1 126.634 20.508 A 1128.218 1128.218 0 0 0 127.801 20.372 Q 129.466 20.177 130.611 20.037 Q 131.918 19.878 132.613 19.543 A 2.409 2.409 0 0 0 132.83 19.425 A 1.403 1.403 0 0 0 133.494 18.409 A 2.251 2.251 0 0 0 133.523 18.04 Z M 226.332 36.364 L 221.023 36.364 L 221.023 9.091 L 226.154 9.091 L 226.154 13.423 L 226.438 13.423 A 6.622 6.622 0 0 1 229.075 9.952 A 7.509 7.509 0 0 1 233.326 8.683 A 9.016 9.016 0 0 1 233.363 8.683 Q 233.705 8.683 234.135 8.699 A 31.839 31.839 0 0 1 234.544 8.718 A 24.128 24.128 0 0 1 234.867 8.737 Q 235.325 8.767 235.618 8.807 L 235.618 13.885 Q 235.298 13.796 234.482 13.681 A 11.661 11.661 0 0 0 232.848 13.565 A 7.657 7.657 0 0 0 230.966 13.788 A 6.352 6.352 0 0 0 229.501 14.355 A 6.006 6.006 0 0 0 227.184 16.539 A 5.841 5.841 0 0 0 226.345 19.271 A 7.115 7.115 0 0 0 226.332 19.709 L 226.332 36.364 Z M 195.366 22.727 A 16.816 16.816 0 0 0 195.537 25.188 Q 195.744 26.585 196.2 27.77 A 8.747 8.747 0 0 0 197.147 29.592 A 6.853 6.853 0 0 0 198.615 31.152 A 5.813 5.813 0 0 0 201.385 32.293 A 7.725 7.725 0 0 0 202.486 32.369 A 7.372 7.372 0 0 0 204.354 32.143 A 5.641 5.641 0 0 0 206.463 31.099 A 7.371 7.371 0 0 0 208.361 28.802 A 9.434 9.434 0 0 0 208.887 27.646 A 12.647 12.647 0 0 0 209.596 24.701 A 16.231 16.231 0 0 0 209.712 22.727 A 15.507 15.507 0 0 0 209.498 20.09 A 12.118 12.118 0 0 0 208.904 17.88 Q 208.097 15.732 206.49 14.489 A 5.859 5.859 0 0 0 203.873 13.361 A 8.015 8.015 0 0 0 202.486 13.246 A 7.432 7.432 0 0 0 200.604 13.473 A 5.751 5.751 0 0 0 198.588 14.435 Q 196.999 15.625 196.183 17.756 Q 195.366 19.886 195.366 22.727 Z M 133.54 26.527 L 133.54 23.011 Q 133.312 23.24 132.743 23.44 A 6.229 6.229 0 0 1 132.449 23.535 A 12.807 12.807 0 0 1 131.585 23.757 Q 131.133 23.858 130.627 23.941 A 20.278 20.278 0 0 1 130.611 23.944 Q 129.581 24.112 128.604 24.245 A 2139.814 2139.814 0 0 1 128.136 24.309 Q 127.485 24.398 127.003 24.463 A 696.077 696.077 0 0 1 126.971 24.467 A 14.286 14.286 0 0 0 125.32 24.771 A 11.542 11.542 0 0 0 124.157 25.124 A 5.59 5.59 0 0 0 123.08 25.645 A 4.302 4.302 0 0 0 122.132 26.447 A 2.946 2.946 0 0 0 121.484 27.742 Q 121.379 28.189 121.378 28.712 A 5.31 5.31 0 0 0 121.378 28.729 A 4.232 4.232 0 0 0 121.55 29.969 A 3.188 3.188 0 0 0 122.834 31.703 A 5.44 5.44 0 0 0 124.695 32.507 Q 125.435 32.681 126.296 32.703 A 9.843 9.843 0 0 0 126.545 32.706 A 9.317 9.317 0 0 0 128.343 32.541 A 6.728 6.728 0 0 0 130.318 31.836 A 6.593 6.593 0 0 0 131.884 30.65 A 5.771 5.771 0 0 0 132.715 29.554 Q 133.54 28.143 133.54 26.527 Z M 179.51 36.701 Q 178.054 36.701 177.006 35.662 A 3.404 3.404 0 0 1 175.959 33.196 A 4.121 4.121 0 0 1 175.959 33.15 A 3.382 3.382 0 0 1 176.974 30.688 A 4.181 4.181 0 0 1 177.006 30.655 A 3.492 3.492 0 0 1 178.47 29.764 A 3.592 3.592 0 0 1 179.51 29.616 Q 180.966 29.616 182.013 30.655 A 3.461 3.461 0 0 1 182.895 32.056 A 3.532 3.532 0 0 1 183.061 33.15 A 3.384 3.384 0 0 1 182.573 34.934 A 3.723 3.723 0 0 1 181.286 36.222 Q 180.487 36.701 179.51 36.701 Z" vector-effect="non-scaling-stroke"/></g></svg>